# xmcd
#
# Track frame offsets:
#	150
#	13157
#	27917
#	42110
#	57132
#	74957
#	87337
#	100810
#	119192
#	132072
#	144090
#	152070
#	169327
#
# Disc length: 2448 seconds
#
# Revision: 0
# Processed by: cddbd v1.4PL0 Copyright (c) Steve Scherf et al.
# Submitted via: dBpowerAMP V4.0
#
DISCID=b5098e0d
DTITLE=Nelson Trout - Riding Out The Storm
DYEAR=1999
DGENRE=Country
TTITLE0=Inside Out
TTITLE1=Kickin' Livin' The Blues
TTITLE2=Ridin' Out The Storm
TTITLE3=Down Without You
TTITLE4=First Haircut
TTITLE5=Wish I Didn't Do What I Did Last Night
TTITLE6=If It's Love
TTITLE7=Answering The Call
TTITLE8=Seperate Lives Together
TTITLE9=Break It To My Heart
TTITLE10=Horse Runnin' Free
TTITLE11=Marianne
TTITLE12=Kickin' Livin' The Blues #2
EXTD=
EXTT0=
EXTT1=
EXTT2=
EXTT3=
EXTT4=
EXTT5=
EXTT6=
EXTT7=
EXTT8=
EXTT9=
EXTT10=
EXTT11=
EXTT12=
PLAYORDER=
